<?xml version="1.0" encoding="utf-8" standalone="no"?>
<!DOCTYPE svg PUBLIC "-//W3C//DTD SVG 1.1//EN"
  "http://www.w3.org/Graphics/SVG/1.1/DTD/svg11.dtd">
<!-- Created with matplotlib (http://matplotlib.org/) -->
<svg height="194pt" version="1.1" viewBox="0 0 434 194" width="434pt" xmlns="http://www.w3.org/2000/svg" xmlns:xlink="http://www.w3.org/1999/xlink">
 <defs>
  <style type="text/css">
*{stroke-linecap:butt;stroke-linejoin:round;stroke-miterlimit:100000;}
  </style>
 </defs>
 <g id="figure_1">
  <g id="patch_1">
   <path d="M 0 194.4 
L 434.88 194.4 
L 434.88 0 
L 0 0 
z
" style="fill:#ffffff;"/>
  </g>
  <g id="axes_1">
   <g id="patch_2">
    <path d="M 54.36 174.96 
L 391.392 174.96 
L 391.392 19.44 
L 54.36 19.44 
z
" style="fill:#e5e5e5;"/>
   </g>
   <g id="matplotlib.axis_1">
    <g id="xtick_1">
     <g id="line2d_1">
      <path clip-path="url(#p2b09415633)" d="M 54.36 174.96 
L 54.36 19.44 
" style="fill:none;stroke:#ffffff;stroke-linecap:square;stroke-width:0.5;"/>
     </g>
     <g id="line2d_2">
      <defs>
       <path d="M 0 0 
L 0 4 
" id="ma98aece125" style="stroke:#555555;stroke-width:0.5;"/>
      </defs>
      <g>
       <use style="fill:#555555;stroke:#555555;stroke-width:0.5;" x="54.36" xlink:href="#ma98aece125" y="174.96"/>
      </g>
     </g>
     <g id="line2d_3">
      <defs>
       <path d="M 0 0 
L 0 -4 
" id="md1eff1a35d" style="stroke:#555555;stroke-width:0.5;"/>
      </defs>
      <g>
       <use style="fill:#555555;stroke:#555555;stroke-width:0.5;" x="54.36" xlink:href="#md1eff1a35d" y="19.44"/>
      </g>
     </g>
     <g id="text_1">
      <!-- −10000 -->
      <defs>
       <path d="M 12.40625 8.296875 
L 28.515625 8.296875 
L 28.515625 63.921875 
L 10.984375 60.40625 
L 10.984375 69.390625 
L 28.421875 72.90625 
L 38.28125 72.90625 
L 38.28125 8.296875 
L 54.390625 8.296875 
L 54.390625 0 
L 12.40625 0 
z
" id="BitstreamVeraSans-Roman-31"/>
       <path d="M 31.78125 66.40625 
Q 24.171875 66.40625 20.328125 58.90625 
Q 16.5 51.421875 16.5 36.375 
Q 16.5 21.390625 20.328125 13.890625 
Q 24.171875 6.390625 31.78125 6.390625 
Q 39.453125 6.390625 43.28125 13.890625 
Q 47.125 21.390625 47.125 36.375 
Q 47.125 51.421875 43.28125 58.90625 
Q 39.453125 66.40625 31.78125 66.40625 
M 31.78125 74.21875 
Q 44.046875 74.21875 50.515625 64.515625 
Q 56.984375 54.828125 56.984375 36.375 
Q 56.984375 17.96875 50.515625 8.265625 
Q 44.046875 -1.421875 31.78125 -1.421875 
Q 19.53125 -1.421875 13.0625 8.265625 
Q 6.59375 17.96875 6.59375 36.375 
Q 6.59375 54.828125 13.0625 64.515625 
Q 19.53125 74.21875 31.78125 74.21875 
" id="BitstreamVeraSans-Roman-30"/>
       <path d="M 10.59375 35.5 
L 73.1875 35.5 
L 73.1875 27.203125 
L 10.59375 27.203125 
z
" id="BitstreamVeraSans-Roman-2212"/>
      </defs>
      <g style="fill:#555555;" transform="translate(42.30234375 187.5190625)scale(0.06 -0.06)">
       <use xlink:href="#BitstreamVeraSans-Roman-2212"/>
       <use x="83.7890625" xlink:href="#BitstreamVeraSans-Roman-31"/>
       <use x="147.412109375" xlink:href="#BitstreamVeraSans-Roman-30"/>
       <use x="211.03515625" xlink:href="#BitstreamVeraSans-Roman-30"/>
       <use x="274.658203125" xlink:href="#BitstreamVeraSans-Roman-30"/>
       <use x="338.28125" xlink:href="#BitstreamVeraSans-Roman-30"/>
      </g>
     </g>
    </g>
    <g id="xtick_2">
     <g id="line2d_4">
      <path clip-path="url(#p2b09415633)" d="M 110.067769 174.96 
L 110.067769 19.44 
" style="fill:none;stroke:#ffffff;stroke-linecap:square;stroke-width:0.5;"/>
     </g>
     <g id="line2d_5">
      <g>
       <use style="fill:#555555;stroke:#555555;stroke-width:0.5;" x="110.067768595" xlink:href="#ma98aece125" y="174.96"/>
      </g>
     </g>
     <g id="line2d_6">
      <g>
       <use style="fill:#555555;stroke:#555555;stroke-width:0.5;" x="110.067768595" xlink:href="#md1eff1a35d" y="19.44"/>
      </g>
     </g>
     <g id="text_2">
      <!-- −8000 -->
      <defs>
       <path d="M 31.78125 34.625 
Q 24.75 34.625 20.71875 30.859375 
Q 16.703125 27.09375 16.703125 20.515625 
Q 16.703125 13.921875 20.71875 10.15625 
Q 24.75 6.390625 31.78125 6.390625 
Q 38.8125 6.390625 42.859375 10.171875 
Q 46.921875 13.96875 46.921875 20.515625 
Q 46.921875 27.09375 42.890625 30.859375 
Q 38.875 34.625 31.78125 34.625 
M 21.921875 38.8125 
Q 15.578125 40.375 12.03125 44.71875 
Q 8.5 49.078125 8.5 55.328125 
Q 8.5 64.0625 14.71875 69.140625 
Q 20.953125 74.21875 31.78125 74.21875 
Q 42.671875 74.21875 48.875 69.140625 
Q 55.078125 64.0625 55.078125 55.328125 
Q 55.078125 49.078125 51.53125 44.71875 
Q 48 40.375 41.703125 38.8125 
Q 48.828125 37.15625 52.796875 32.3125 
Q 56.78125 27.484375 56.78125 20.515625 
Q 56.78125 9.90625 50.3125 4.234375 
Q 43.84375 -1.421875 31.78125 -1.421875 
Q 19.734375 -1.421875 13.25 4.234375 
Q 6.78125 9.90625 6.78125 20.515625 
Q 6.78125 27.484375 10.78125 32.3125 
Q 14.796875 37.15625 21.921875 38.8125 
M 18.3125 54.390625 
Q 18.3125 48.734375 21.84375 45.5625 
Q 25.390625 42.390625 31.78125 42.390625 
Q 38.140625 42.390625 41.71875 45.5625 
Q 45.3125 48.734375 45.3125 54.390625 
Q 45.3125 60.0625 41.71875 63.234375 
Q 38.140625 66.40625 31.78125 66.40625 
Q 25.390625 66.40625 21.84375 63.234375 
Q 18.3125 60.0625 18.3125 54.390625 
" id="BitstreamVeraSans-Roman-38"/>
      </defs>
      <g style="fill:#555555;" transform="translate(99.918862345 187.5190625)scale(0.06 -0.06)">
       <use xlink:href="#BitstreamVeraSans-Roman-2212"/>
       <use x="83.7890625" xlink:href="#BitstreamVeraSans-Roman-38"/>
       <use x="147.412109375" xlink:href="#BitstreamVeraSans-Roman-30"/>
       <use x="211.03515625" xlink:href="#BitstreamVeraSans-Roman-30"/>
       <use x="274.658203125" xlink:href="#BitstreamVeraSans-Roman-30"/>
      </g>
     </g>
    </g>
    <g id="xtick_3">
     <g id="line2d_7">
      <path clip-path="url(#p2b09415633)" d="M 165.775537 174.96 
L 165.775537 19.44 
" style="fill:none;stroke:#ffffff;stroke-linecap:square;stroke-width:0.5;"/>
     </g>
     <g id="line2d_8">
      <g>
       <use style="fill:#555555;stroke:#555555;stroke-width:0.5;" x="165.77553719" xlink:href="#ma98aece125" y="174.96"/>
      </g>
     </g>
     <g id="line2d_9">
      <g>
       <use style="fill:#555555;stroke:#555555;stroke-width:0.5;" x="165.77553719" xlink:href="#md1eff1a35d" y="19.44"/>
      </g>
     </g>
     <g id="text_3">
      <!-- −6000 -->
      <defs>
       <path d="M 33.015625 40.375 
Q 26.375 40.375 22.484375 35.828125 
Q 18.609375 31.296875 18.609375 23.390625 
Q 18.609375 15.53125 22.484375 10.953125 
Q 26.375 6.390625 33.015625 6.390625 
Q 39.65625 6.390625 43.53125 10.953125 
Q 47.40625 15.53125 47.40625 23.390625 
Q 47.40625 31.296875 43.53125 35.828125 
Q 39.65625 40.375 33.015625 40.375 
M 52.59375 71.296875 
L 52.59375 62.3125 
Q 48.875 64.0625 45.09375 64.984375 
Q 41.3125 65.921875 37.59375 65.921875 
Q 27.828125 65.921875 22.671875 59.328125 
Q 17.53125 52.734375 16.796875 39.40625 
Q 19.671875 43.65625 24.015625 45.921875 
Q 28.375 48.1875 33.59375 48.1875 
Q 44.578125 48.1875 50.953125 41.515625 
Q 57.328125 34.859375 57.328125 23.390625 
Q 57.328125 12.15625 50.6875 5.359375 
Q 44.046875 -1.421875 33.015625 -1.421875 
Q 20.359375 -1.421875 13.671875 8.265625 
Q 6.984375 17.96875 6.984375 36.375 
Q 6.984375 53.65625 15.1875 63.9375 
Q 23.390625 74.21875 37.203125 74.21875 
Q 40.921875 74.21875 44.703125 73.484375 
Q 48.484375 72.75 52.59375 71.296875 
" id="BitstreamVeraSans-Roman-36"/>
      </defs>
      <g style="fill:#555555;" transform="translate(155.62663094 187.5190625)scale(0.06 -0.06)">
       <use xlink:href="#BitstreamVeraSans-Roman-2212"/>
       <use x="83.7890625" xlink:href="#BitstreamVeraSans-Roman-36"/>
       <use x="147.412109375" xlink:href="#BitstreamVeraSans-Roman-30"/>
       <use x="211.03515625" xlink:href="#BitstreamVeraSans-Roman-30"/>
       <use x="274.658203125" xlink:href="#BitstreamVeraSans-Roman-30"/>
      </g>
     </g>
    </g>
    <g id="xtick_4">
     <g id="line2d_10">
      <path clip-path="url(#p2b09415633)" d="M 221.483306 174.96 
L 221.483306 19.44 
" style="fill:none;stroke:#ffffff;stroke-linecap:square;stroke-width:0.5;"/>
     </g>
     <g id="line2d_11">
      <g>
       <use style="fill:#555555;stroke:#555555;stroke-width:0.5;" x="221.483305785" xlink:href="#ma98aece125" y="174.96"/>
      </g>
     </g>
     <g id="line2d_12">
      <g>
       <use style="fill:#555555;stroke:#555555;stroke-width:0.5;" x="221.483305785" xlink:href="#md1eff1a35d" y="19.44"/>
      </g>
     </g>
     <g id="text_4">
      <!-- −4000 -->
      <defs>
       <path d="M 37.796875 64.3125 
L 12.890625 25.390625 
L 37.796875 25.390625 
z
M 35.203125 72.90625 
L 47.609375 72.90625 
L 47.609375 25.390625 
L 58.015625 25.390625 
L 58.015625 17.1875 
L 47.609375 17.1875 
L 47.609375 0 
L 37.796875 0 
L 37.796875 17.1875 
L 4.890625 17.1875 
L 4.890625 26.703125 
z
" id="BitstreamVeraSans-Roman-34"/>
      </defs>
      <g style="fill:#555555;" transform="translate(211.334399535 187.5190625)scale(0.06 -0.06)">
       <use xlink:href="#BitstreamVeraSans-Roman-2212"/>
       <use x="83.7890625" xlink:href="#BitstreamVeraSans-Roman-34"/>
       <use x="147.412109375" xlink:href="#BitstreamVeraSans-Roman-30"/>
       <use x="211.03515625" xlink:href="#BitstreamVeraSans-Roman-30"/>
       <use x="274.658203125" xlink:href="#BitstreamVeraSans-Roman-30"/>
      </g>
     </g>
    </g>
    <g id="xtick_5">
     <g id="line2d_13">
      <path clip-path="url(#p2b09415633)" d="M 277.191074 174.96 
L 277.191074 19.44 
" style="fill:none;stroke:#ffffff;stroke-linecap:square;stroke-width:0.5;"/>
     </g>
     <g id="line2d_14">
      <g>
       <use style="fill:#555555;stroke:#555555;stroke-width:0.5;" x="277.19107438" xlink:href="#ma98aece125" y="174.96"/>
      </g>
     </g>
     <g id="line2d_15">
      <g>
       <use style="fill:#555555;stroke:#555555;stroke-width:0.5;" x="277.19107438" xlink:href="#md1eff1a35d" y="19.44"/>
      </g>
     </g>
     <g id="text_5">
      <!-- −2000 -->
      <defs>
       <path d="M 19.1875 8.296875 
L 53.609375 8.296875 
L 53.609375 0 
L 7.328125 0 
L 7.328125 8.296875 
Q 12.9375 14.109375 22.625 23.890625 
Q 32.328125 33.6875 34.8125 36.53125 
Q 39.546875 41.84375 41.421875 45.53125 
Q 43.3125 49.21875 43.3125 52.78125 
Q 43.3125 58.59375 39.234375 62.25 
Q 35.15625 65.921875 28.609375 65.921875 
Q 23.96875 65.921875 18.8125 64.3125 
Q 13.671875 62.703125 7.8125 59.421875 
L 7.8125 69.390625 
Q 13.765625 71.78125 18.9375 73 
Q 24.125 74.21875 28.421875 74.21875 
Q 39.75 74.21875 46.484375 68.546875 
Q 53.21875 62.890625 53.21875 53.421875 
Q 53.21875 48.921875 51.53125 44.890625 
Q 49.859375 40.875 45.40625 35.40625 
Q 44.1875 33.984375 37.640625 27.21875 
Q 31.109375 20.453125 19.1875 8.296875 
" id="BitstreamVeraSans-Roman-32"/>
      </defs>
      <g style="fill:#555555;" transform="translate(267.04216813 187.5190625)scale(0.06 -0.06)">
       <use xlink:href="#BitstreamVeraSans-Roman-2212"/>
       <use x="83.7890625" xlink:href="#BitstreamVeraSans-Roman-32"/>
       <use x="147.412109375" xlink:href="#BitstreamVeraSans-Roman-30"/>
       <use x="211.03515625" xlink:href="#BitstreamVeraSans-Roman-30"/>
       <use x="274.658203125" xlink:href="#BitstreamVeraSans-Roman-30"/>
      </g>
     </g>
    </g>
    <g id="xtick_6">
     <g id="line2d_16">
      <path clip-path="url(#p2b09415633)" d="M 332.898843 174.96 
L 332.898843 19.44 
" style="fill:none;stroke:#ffffff;stroke-linecap:square;stroke-width:0.5;"/>
     </g>
     <g id="line2d_17">
      <g>
       <use style="fill:#555555;stroke:#555555;stroke-width:0.5;" x="332.898842975" xlink:href="#ma98aece125" y="174.96"/>
      </g>
     </g>
     <g id="line2d_18">
      <g>
       <use style="fill:#555555;stroke:#555555;stroke-width:0.5;" x="332.898842975" xlink:href="#md1eff1a35d" y="19.44"/>
      </g>
     </g>
     <g id="text_6">
      <!-- 0 -->
      <g style="fill:#555555;" transform="translate(330.990092975 187.5190625)scale(0.06 -0.06)">
       <use xlink:href="#BitstreamVeraSans-Roman-30"/>
      </g>
     </g>
    </g>
    <g id="xtick_7">
     <g id="line2d_19">
      <path clip-path="url(#p2b09415633)" d="M 388.606612 174.96 
L 388.606612 19.44 
" style="fill:none;stroke:#ffffff;stroke-linecap:square;stroke-width:0.5;"/>
     </g>
     <g id="line2d_20">
      <g>
       <use style="fill:#555555;stroke:#555555;stroke-width:0.5;" x="388.60661157" xlink:href="#ma98aece125" y="174.96"/>
      </g>
     </g>
     <g id="line2d_21">
      <g>
       <use style="fill:#555555;stroke:#555555;stroke-width:0.5;" x="388.60661157" xlink:href="#md1eff1a35d" y="19.44"/>
      </g>
     </g>
     <g id="text_7">
      <!-- 2000 -->
      <g style="fill:#555555;" transform="translate(380.97161157 187.5190625)scale(0.06 -0.06)">
       <use xlink:href="#BitstreamVeraSans-Roman-32"/>
       <use x="63.623046875" xlink:href="#BitstreamVeraSans-Roman-30"/>
       <use x="127.24609375" xlink:href="#BitstreamVeraSans-Roman-30"/>
       <use x="190.869140625" xlink:href="#BitstreamVeraSans-Roman-30"/>
      </g>
     </g>
    </g>
    <g id="text_8">
     <!-- Year -->
     <defs>
      <path d="M 56.203125 29.59375 
L 56.203125 25.203125 
L 14.890625 25.203125 
Q 15.484375 15.921875 20.484375 11.0625 
Q 25.484375 6.203125 34.421875 6.203125 
Q 39.59375 6.203125 44.453125 7.46875 
Q 49.3125 8.734375 54.109375 11.28125 
L 54.109375 2.78125 
Q 49.265625 0.734375 44.1875 -0.34375 
Q 39.109375 -1.421875 33.890625 -1.421875 
Q 20.796875 -1.421875 13.15625 6.1875 
Q 5.515625 13.8125 5.515625 26.8125 
Q 5.515625 40.234375 12.765625 48.109375 
Q 20.015625 56 32.328125 56 
Q 43.359375 56 49.78125 48.890625 
Q 56.203125 41.796875 56.203125 29.59375 
M 47.21875 32.234375 
Q 47.125 39.59375 43.09375 43.984375 
Q 39.0625 48.390625 32.421875 48.390625 
Q 24.90625 48.390625 20.390625 44.140625 
Q 15.875 39.890625 15.1875 32.171875 
z
" id="BitstreamVeraSans-Roman-65"/>
      <path d="M 41.109375 46.296875 
Q 39.59375 47.171875 37.8125 47.578125 
Q 36.03125 48 33.890625 48 
Q 26.265625 48 22.1875 43.046875 
Q 18.109375 38.09375 18.109375 28.8125 
L 18.109375 0 
L 9.078125 0 
L 9.078125 54.6875 
L 18.109375 54.6875 
L 18.109375 46.1875 
Q 20.953125 51.171875 25.484375 53.578125 
Q 30.03125 56 36.53125 56 
Q 37.453125 56 38.578125 55.875 
Q 39.703125 55.765625 41.0625 55.515625 
z
" id="BitstreamVeraSans-Roman-72"/>
      <path d="M -0.203125 72.90625 
L 10.40625 72.90625 
L 30.609375 42.921875 
L 50.6875 72.90625 
L 61.28125 72.90625 
L 35.5 34.71875 
L 35.5 0 
L 25.59375 0 
L 25.59375 34.71875 
z
" id="BitstreamVeraSans-Roman-59"/>
      <path d="M 34.28125 27.484375 
Q 23.390625 27.484375 19.1875 25 
Q 14.984375 22.515625 14.984375 16.5 
Q 14.984375 11.71875 18.140625 8.90625 
Q 21.296875 6.109375 26.703125 6.109375 
Q 34.1875 6.109375 38.703125 11.40625 
Q 43.21875 16.703125 43.21875 25.484375 
L 43.21875 27.484375 
z
M 52.203125 31.203125 
L 52.203125 0 
L 43.21875 0 
L 43.21875 8.296875 
Q 40.140625 3.328125 35.546875 0.953125 
Q 30.953125 -1.421875 24.3125 -1.421875 
Q 15.921875 -1.421875 10.953125 3.296875 
Q 6 8.015625 6 15.921875 
Q 6 25.140625 12.171875 29.828125 
Q 18.359375 34.515625 30.609375 34.515625 
L 43.21875 34.515625 
L 43.21875 35.40625 
Q 43.21875 41.609375 39.140625 45 
Q 35.0625 48.390625 27.6875 48.390625 
Q 23 48.390625 18.546875 47.265625 
Q 14.109375 46.140625 10.015625 43.890625 
L 10.015625 52.203125 
Q 14.9375 54.109375 19.578125 55.046875 
Q 24.21875 56 28.609375 56 
Q 40.484375 56 46.34375 49.84375 
Q 52.203125 43.703125 52.203125 31.203125 
" id="BitstreamVeraSans-Roman-61"/>
     </defs>
     <g style="fill:#555555;" transform="translate(216.13209375 198.3259375)scale(0.06 -0.06)">
      <use xlink:href="#BitstreamVeraSans-Roman-59"/>
      <use x="60.880859375" xlink:href="#BitstreamVeraSans-Roman-65"/>
      <use x="122.404296875" xlink:href="#BitstreamVeraSans-Roman-61"/>
      <use x="183.68359375" xlink:href="#BitstreamVeraSans-Roman-72"/>
     </g>
    </g>
   </g>
   <g id="matplotlib.axis_2">
    <g id="ytick_1">
     <g id="line2d_22">
      <path clip-path="url(#p2b09415633)" d="M 54.36 174.96 
L 391.392 174.96 
" style="fill:none;stroke:#ffffff;stroke-linecap:square;stroke-width:0.5;"/>
     </g>
     <g id="line2d_23">
      <defs>
       <path d="M 0 0 
L -4 0 
" id="mc3988625b5" style="stroke:#555555;stroke-width:0.5;"/>
      </defs>
      <g>
       <use style="fill:#555555;stroke:#555555;stroke-width:0.5;" x="54.36" xlink:href="#mc3988625b5" y="174.96"/>
      </g>
     </g>
     <g id="line2d_24">
      <defs>
       <path d="M 0 0 
L 4 0 
" id="mee7f2f4a94" style="stroke:#555555;stroke-width:0.5;"/>
      </defs>
      <g>
       <use style="fill:#555555;stroke:#555555;stroke-width:0.5;" x="391.392" xlink:href="#mee7f2f4a94" y="174.96"/>
      </g>
     </g>
     <g id="text_9">
      <!-- 240 -->
      <g style="fill:#555555;" transform="translate(34.9075 176.615625)scale(0.06 -0.06)">
       <use xlink:href="#BitstreamVeraSans-Roman-32"/>
       <use x="63.623046875" xlink:href="#BitstreamVeraSans-Roman-34"/>
       <use x="127.24609375" xlink:href="#BitstreamVeraSans-Roman-30"/>
      </g>
     </g>
    </g>
    <g id="ytick_2">
     <g id="line2d_25">
      <path clip-path="url(#p2b09415633)" d="M 54.36 157.68 
L 391.392 157.68 
" style="fill:none;stroke:#ffffff;stroke-linecap:square;stroke-width:0.5;"/>
     </g>
     <g id="line2d_26">
      <g>
       <use style="fill:#555555;stroke:#555555;stroke-width:0.5;" x="54.36" xlink:href="#mc3988625b5" y="157.68"/>
      </g>
     </g>
     <g id="line2d_27">
      <g>
       <use style="fill:#555555;stroke:#555555;stroke-width:0.5;" x="391.392" xlink:href="#mee7f2f4a94" y="157.68"/>
      </g>
     </g>
     <g id="text_10">
      <!-- 260 -->
      <g style="fill:#555555;" transform="translate(34.9075 159.335625)scale(0.06 -0.06)">
       <use xlink:href="#BitstreamVeraSans-Roman-32"/>
       <use x="63.623046875" xlink:href="#BitstreamVeraSans-Roman-36"/>
       <use x="127.24609375" xlink:href="#BitstreamVeraSans-Roman-30"/>
      </g>
     </g>
    </g>
    <g id="ytick_3">
     <g id="line2d_28">
      <path clip-path="url(#p2b09415633)" d="M 54.36 140.4 
L 391.392 140.4 
" style="fill:none;stroke:#ffffff;stroke-linecap:square;stroke-width:0.5;"/>
     </g>
     <g id="line2d_29">
      <g>
       <use style="fill:#555555;stroke:#555555;stroke-width:0.5;" x="54.36" xlink:href="#mc3988625b5" y="140.4"/>
      </g>
     </g>
     <g id="line2d_30">
      <g>
       <use style="fill:#555555;stroke:#555555;stroke-width:0.5;" x="391.392" xlink:href="#mee7f2f4a94" y="140.4"/>
      </g>
     </g>
     <g id="text_11">
      <!-- 280 -->
      <g style="fill:#555555;" transform="translate(34.9075 142.055625)scale(0.06 -0.06)">
       <use xlink:href="#BitstreamVeraSans-Roman-32"/>
       <use x="63.623046875" xlink:href="#BitstreamVeraSans-Roman-38"/>
       <use x="127.24609375" xlink:href="#BitstreamVeraSans-Roman-30"/>
      </g>
     </g>
    </g>
    <g id="ytick_4">
     <g id="line2d_31">
      <path clip-path="url(#p2b09415633)" d="M 54.36 123.12 
L 391.392 123.12 
" style="fill:none;stroke:#ffffff;stroke-linecap:square;stroke-width:0.5;"/>
     </g>
     <g id="line2d_32">
      <g>
       <use style="fill:#555555;stroke:#555555;stroke-width:0.5;" x="54.36" xlink:href="#mc3988625b5" y="123.12"/>
      </g>
     </g>
     <g id="line2d_33">
      <g>
       <use style="fill:#555555;stroke:#555555;stroke-width:0.5;" x="391.392" xlink:href="#mee7f2f4a94" y="123.12"/>
      </g>
     </g>
     <g id="text_12">
      <!-- 300 -->
      <defs>
       <path d="M 40.578125 39.3125 
Q 47.65625 37.796875 51.625 33 
Q 55.609375 28.21875 55.609375 21.1875 
Q 55.609375 10.40625 48.1875 4.484375 
Q 40.765625 -1.421875 27.09375 -1.421875 
Q 22.515625 -1.421875 17.65625 -0.515625 
Q 12.796875 0.390625 7.625 2.203125 
L 7.625 11.71875 
Q 11.71875 9.328125 16.59375 8.109375 
Q 21.484375 6.890625 26.8125 6.890625 
Q 36.078125 6.890625 40.9375 10.546875 
Q 45.796875 14.203125 45.796875 21.1875 
Q 45.796875 27.640625 41.28125 31.265625 
Q 36.765625 34.90625 28.71875 34.90625 
L 20.21875 34.90625 
L 20.21875 43.015625 
L 29.109375 43.015625 
Q 36.375 43.015625 40.234375 45.921875 
Q 44.09375 48.828125 44.09375 54.296875 
Q 44.09375 59.90625 40.109375 62.90625 
Q 36.140625 65.921875 28.71875 65.921875 
Q 24.65625 65.921875 20.015625 65.03125 
Q 15.375 64.15625 9.8125 62.3125 
L 9.8125 71.09375 
Q 15.4375 72.65625 20.34375 73.4375 
Q 25.25 74.21875 29.59375 74.21875 
Q 40.828125 74.21875 47.359375 69.109375 
Q 53.90625 64.015625 53.90625 55.328125 
Q 53.90625 49.265625 50.4375 45.09375 
Q 46.96875 40.921875 40.578125 39.3125 
" id="BitstreamVeraSans-Roman-33"/>
      </defs>
      <g style="fill:#555555;" transform="translate(34.9075 124.775625)scale(0.06 -0.06)">
       <use xlink:href="#BitstreamVeraSans-Roman-33"/>
       <use x="63.623046875" xlink:href="#BitstreamVeraSans-Roman-30"/>
       <use x="127.24609375" xlink:href="#BitstreamVeraSans-Roman-30"/>
      </g>
     </g>
    </g>
    <g id="ytick_5">
     <g id="line2d_34">
      <path clip-path="url(#p2b09415633)" d="M 54.36 105.84 
L 391.392 105.84 
" style="fill:none;stroke:#ffffff;stroke-linecap:square;stroke-width:0.5;"/>
     </g>
     <g id="line2d_35">
      <g>
       <use style="fill:#555555;stroke:#555555;stroke-width:0.5;" x="54.36" xlink:href="#mc3988625b5" y="105.84"/>
      </g>
     </g>
     <g id="line2d_36">
      <g>
       <use style="fill:#555555;stroke:#555555;stroke-width:0.5;" x="391.392" xlink:href="#mee7f2f4a94" y="105.84"/>
      </g>
     </g>
     <g id="text_13">
      <!-- 320 -->
      <g style="fill:#555555;" transform="translate(34.9075 107.495625)scale(0.06 -0.06)">
       <use xlink:href="#BitstreamVeraSans-Roman-33"/>
       <use x="63.623046875" xlink:href="#BitstreamVeraSans-Roman-32"/>
       <use x="127.24609375" xlink:href="#BitstreamVeraSans-Roman-30"/>
      </g>
     </g>
    </g>
    <g id="ytick_6">
     <g id="line2d_37">
      <path clip-path="url(#p2b09415633)" d="M 54.36 88.56 
L 391.392 88.56 
" style="fill:none;stroke:#ffffff;stroke-linecap:square;stroke-width:0.5;"/>
     </g>
     <g id="line2d_38">
      <g>
       <use style="fill:#555555;stroke:#555555;stroke-width:0.5;" x="54.36" xlink:href="#mc3988625b5" y="88.56"/>
      </g>
     </g>
     <g id="line2d_39">
      <g>
       <use style="fill:#555555;stroke:#555555;stroke-width:0.5;" x="391.392" xlink:href="#mee7f2f4a94" y="88.56"/>
      </g>
     </g>
     <g id="text_14">
      <!-- 340 -->
      <g style="fill:#555555;" transform="translate(34.9075 90.215625)scale(0.06 -0.06)">
       <use xlink:href="#BitstreamVeraSans-Roman-33"/>
       <use x="63.623046875" xlink:href="#BitstreamVeraSans-Roman-34"/>
       <use x="127.24609375" xlink:href="#BitstreamVeraSans-Roman-30"/>
      </g>
     </g>
    </g>
    <g id="ytick_7">
     <g id="line2d_40">
      <path clip-path="url(#p2b09415633)" d="M 54.36 71.28 
L 391.392 71.28 
" style="fill:none;stroke:#ffffff;stroke-linecap:square;stroke-width:0.5;"/>
     </g>
     <g id="line2d_41">
      <g>
       <use style="fill:#555555;stroke:#555555;stroke-width:0.5;" x="54.36" xlink:href="#mc3988625b5" y="71.28"/>
      </g>
     </g>
     <g id="line2d_42">
      <g>
       <use style="fill:#555555;stroke:#555555;stroke-width:0.5;" x="391.392" xlink:href="#mee7f2f4a94" y="71.28"/>
      </g>
     </g>
     <g id="text_15">
      <!-- 360 -->
      <g style="fill:#555555;" transform="translate(34.9075 72.935625)scale(0.06 -0.06)">
       <use xlink:href="#BitstreamVeraSans-Roman-33"/>
       <use x="63.623046875" xlink:href="#BitstreamVeraSans-Roman-36"/>
       <use x="127.24609375" xlink:href="#BitstreamVeraSans-Roman-30"/>
      </g>
     </g>
    </g>
    <g id="ytick_8">
     <g id="line2d_43">
      <path clip-path="url(#p2b09415633)" d="M 54.36 54 
L 391.392 54 
" style="fill:none;stroke:#ffffff;stroke-linecap:square;stroke-width:0.5;"/>
     </g>
     <g id="line2d_44">
      <g>
       <use style="fill:#555555;stroke:#555555;stroke-width:0.5;" x="54.36" xlink:href="#mc3988625b5" y="54.0"/>
      </g>
     </g>
     <g id="line2d_45">
      <g>
       <use style="fill:#555555;stroke:#555555;stroke-width:0.5;" x="391.392" xlink:href="#mee7f2f4a94" y="54.0"/>
      </g>
     </g>
     <g id="text_16">
      <!-- 380 -->
      <g style="fill:#555555;" transform="translate(34.9075 55.655625)scale(0.06 -0.06)">
       <use xlink:href="#BitstreamVeraSans-Roman-33"/>
       <use x="63.623046875" xlink:href="#BitstreamVeraSans-Roman-38"/>
       <use x="127.24609375" xlink:href="#BitstreamVeraSans-Roman-30"/>
      </g>
     </g>
    </g>
    <g id="ytick_9">
     <g id="line2d_46">
      <path clip-path="url(#p2b09415633)" d="M 54.36 36.72 
L 391.392 36.72 
" style="fill:none;stroke:#ffffff;stroke-linecap:square;stroke-width:0.5;"/>
     </g>
     <g id="line2d_47">
      <g>
       <use style="fill:#555555;stroke:#555555;stroke-width:0.5;" x="54.36" xlink:href="#mc3988625b5" y="36.72"/>
      </g>
     </g>
     <g id="line2d_48">
      <g>
       <use style="fill:#555555;stroke:#555555;stroke-width:0.5;" x="391.392" xlink:href="#mee7f2f4a94" y="36.72"/>
      </g>
     </g>
     <g id="text_17">
      <!-- 400 -->
      <g style="fill:#555555;" transform="translate(34.9075 38.375625)scale(0.06 -0.06)">
       <use xlink:href="#BitstreamVeraSans-Roman-34"/>
       <use x="63.623046875" xlink:href="#BitstreamVeraSans-Roman-30"/>
       <use x="127.24609375" xlink:href="#BitstreamVeraSans-Roman-30"/>
      </g>
     </g>
    </g>
    <g id="ytick_10">
     <g id="line2d_49">
      <path clip-path="url(#p2b09415633)" d="M 54.36 19.44 
L 391.392 19.44 
" style="fill:none;stroke:#ffffff;stroke-linecap:square;stroke-width:0.5;"/>
     </g>
     <g id="line2d_50">
      <g>
       <use style="fill:#555555;stroke:#555555;stroke-width:0.5;" x="54.36" xlink:href="#mc3988625b5" y="19.44"/>
      </g>
     </g>
     <g id="line2d_51">
      <g>
       <use style="fill:#555555;stroke:#555555;stroke-width:0.5;" x="391.392" xlink:href="#mee7f2f4a94" y="19.44"/>
      </g>
     </g>
     <g id="text_18">
      <!-- 420 -->
      <g style="fill:#555555;" transform="translate(34.9075 21.095625)scale(0.06 -0.06)">
       <use xlink:href="#BitstreamVeraSans-Roman-34"/>
       <use x="63.623046875" xlink:href="#BitstreamVeraSans-Roman-32"/>
       <use x="127.24609375" xlink:href="#BitstreamVeraSans-Roman-30"/>
      </g>
     </g>
    </g>
    <g id="text_19">
     <!-- Atmospheric carbon dioxide concentration (ppm) -->
     <defs>
      <path d="M 52 44.1875 
Q 55.375 50.25 60.0625 53.125 
Q 64.75 56 71.09375 56 
Q 79.640625 56 84.28125 50.015625 
Q 88.921875 44.046875 88.921875 33.015625 
L 88.921875 0 
L 79.890625 0 
L 79.890625 32.71875 
Q 79.890625 40.578125 77.09375 44.375 
Q 74.3125 48.1875 68.609375 48.1875 
Q 61.625 48.1875 57.5625 43.546875 
Q 53.515625 38.921875 53.515625 30.90625 
L 53.515625 0 
L 44.484375 0 
L 44.484375 32.71875 
Q 44.484375 40.625 41.703125 44.40625 
Q 38.921875 48.1875 33.109375 48.1875 
Q 26.21875 48.1875 22.15625 43.53125 
Q 18.109375 38.875 18.109375 30.90625 
L 18.109375 0 
L 9.078125 0 
L 9.078125 54.6875 
L 18.109375 54.6875 
L 18.109375 46.1875 
Q 21.1875 51.21875 25.484375 53.609375 
Q 29.78125 56 35.6875 56 
Q 41.65625 56 45.828125 52.96875 
Q 50 49.953125 52 44.1875 
" id="BitstreamVeraSans-Roman-6d"/>
      <path d="M 44.28125 53.078125 
L 44.28125 44.578125 
Q 40.484375 46.53125 36.375 47.5 
Q 32.28125 48.484375 27.875 48.484375 
Q 21.1875 48.484375 17.84375 46.4375 
Q 14.5 44.390625 14.5 40.28125 
Q 14.5 37.15625 16.890625 35.375 
Q 19.28125 33.59375 26.515625 31.984375 
L 29.59375 31.296875 
Q 39.15625 29.25 43.1875 25.515625 
Q 47.21875 21.78125 47.21875 15.09375 
Q 47.21875 7.46875 41.1875 3.015625 
Q 35.15625 -1.421875 24.609375 -1.421875 
Q 20.21875 -1.421875 15.453125 -0.5625 
Q 10.6875 0.296875 5.421875 2 
L 5.421875 11.28125 
Q 10.40625 8.6875 15.234375 7.390625 
Q 20.0625 6.109375 24.8125 6.109375 
Q 31.15625 6.109375 34.5625 8.28125 
Q 37.984375 10.453125 37.984375 14.40625 
Q 37.984375 18.0625 35.515625 20.015625 
Q 33.0625 21.96875 24.703125 23.78125 
L 21.578125 24.515625 
Q 13.234375 26.265625 9.515625 29.90625 
Q 5.8125 33.546875 5.8125 39.890625 
Q 5.8125 47.609375 11.28125 51.796875 
Q 16.75 56 26.8125 56 
Q 31.78125 56 36.171875 55.265625 
Q 40.578125 54.546875 44.28125 53.078125 
" id="BitstreamVeraSans-Roman-73"/>
      <path d="M 18.109375 8.203125 
L 18.109375 -20.796875 
L 9.078125 -20.796875 
L 9.078125 54.6875 
L 18.109375 54.6875 
L 18.109375 46.390625 
Q 20.953125 51.265625 25.265625 53.625 
Q 29.59375 56 35.59375 56 
Q 45.5625 56 51.78125 48.09375 
Q 58.015625 40.1875 58.015625 27.296875 
Q 58.015625 14.40625 51.78125 6.484375 
Q 45.5625 -1.421875 35.59375 -1.421875 
Q 29.59375 -1.421875 25.265625 0.953125 
Q 20.953125 3.328125 18.109375 8.203125 
M 48.6875 27.296875 
Q 48.6875 37.203125 44.609375 42.84375 
Q 40.53125 48.484375 33.40625 48.484375 
Q 26.265625 48.484375 22.1875 42.84375 
Q 18.109375 37.203125 18.109375 27.296875 
Q 18.109375 17.390625 22.1875 11.75 
Q 26.265625 6.109375 33.40625 6.109375 
Q 40.53125 6.109375 44.609375 11.75 
Q 48.6875 17.390625 48.6875 27.296875 
" id="BitstreamVeraSans-Roman-70"/>
      <path d="M 54.890625 33.015625 
L 54.890625 0 
L 45.90625 0 
L 45.90625 32.71875 
Q 45.90625 40.484375 42.875 44.328125 
Q 39.84375 48.1875 33.796875 48.1875 
Q 26.515625 48.1875 22.3125 43.546875 
Q 18.109375 38.921875 18.109375 30.90625 
L 18.109375 0 
L 9.078125 0 
L 9.078125 75.984375 
L 18.109375 75.984375 
L 18.109375 46.1875 
Q 21.34375 51.125 25.703125 53.5625 
Q 30.078125 56 35.796875 56 
Q 45.21875 56 50.046875 50.171875 
Q 54.890625 44.34375 54.890625 33.015625 
" id="BitstreamVeraSans-Roman-68"/>
      <path d="M 48.6875 27.296875 
Q 48.6875 37.203125 44.609375 42.84375 
Q 40.53125 48.484375 33.40625 48.484375 
Q 26.265625 48.484375 22.1875 42.84375 
Q 18.109375 37.203125 18.109375 27.296875 
Q 18.109375 17.390625 22.1875 11.75 
Q 26.265625 6.109375 33.40625 6.109375 
Q 40.53125 6.109375 44.609375 11.75 
Q 48.6875 17.390625 48.6875 27.296875 
M 18.109375 46.390625 
Q 20.953125 51.265625 25.265625 53.625 
Q 29.59375 56 35.59375 56 
Q 45.5625 56 51.78125 48.09375 
Q 58.015625 40.1875 58.015625 27.296875 
Q 58.015625 14.40625 51.78125 6.484375 
Q 45.5625 -1.421875 35.59375 -1.421875 
Q 29.59375 -1.421875 25.265625 0.953125 
Q 20.953125 3.328125 18.109375 8.203125 
L 18.109375 0 
L 9.078125 0 
L 9.078125 75.984375 
L 18.109375 75.984375 
z
" id="BitstreamVeraSans-Roman-62"/>
      <path d="M 54.890625 33.015625 
L 54.890625 0 
L 45.90625 0 
L 45.90625 32.71875 
Q 45.90625 40.484375 42.875 44.328125 
Q 39.84375 48.1875 33.796875 48.1875 
Q 26.515625 48.1875 22.3125 43.546875 
Q 18.109375 38.921875 18.109375 30.90625 
L 18.109375 0 
L 9.078125 0 
L 9.078125 54.6875 
L 18.109375 54.6875 
L 18.109375 46.1875 
Q 21.34375 51.125 25.703125 53.5625 
Q 30.078125 56 35.796875 56 
Q 45.21875 56 50.046875 50.171875 
Q 54.890625 44.34375 54.890625 33.015625 
" id="BitstreamVeraSans-Roman-6e"/>
      <path d="M 48.78125 52.59375 
L 48.78125 44.1875 
Q 44.96875 46.296875 41.140625 47.34375 
Q 37.3125 48.390625 33.40625 48.390625 
Q 24.65625 48.390625 19.8125 42.84375 
Q 14.984375 37.3125 14.984375 27.296875 
Q 14.984375 17.28125 19.8125 11.734375 
Q 24.65625 6.203125 33.40625 6.203125 
Q 37.3125 6.203125 41.140625 7.25 
Q 44.96875 8.296875 48.78125 10.40625 
L 48.78125 2.09375 
Q 45.015625 0.34375 40.984375 -0.53125 
Q 36.96875 -1.421875 32.421875 -1.421875 
Q 20.0625 -1.421875 12.78125 6.34375 
Q 5.515625 14.109375 5.515625 27.296875 
Q 5.515625 40.671875 12.859375 48.328125 
Q 20.21875 56 33.015625 56 
Q 37.15625 56 41.109375 55.140625 
Q 45.0625 54.296875 48.78125 52.59375 
" id="BitstreamVeraSans-Roman-63"/>
      <path d="M 31 75.875 
Q 24.46875 64.65625 21.28125 53.65625 
Q 18.109375 42.671875 18.109375 31.390625 
Q 18.109375 20.125 21.3125 9.0625 
Q 24.515625 -2 31 -13.1875 
L 23.1875 -13.1875 
Q 15.875 -1.703125 12.234375 9.375 
Q 8.59375 20.453125 8.59375 31.390625 
Q 8.59375 42.28125 12.203125 53.3125 
Q 15.828125 64.359375 23.1875 75.875 
z
" id="BitstreamVeraSans-Roman-28"/>
      <path id="BitstreamVeraSans-Roman-20"/>
      <path d="M 34.1875 63.1875 
L 20.796875 26.90625 
L 47.609375 26.90625 
z
M 28.609375 72.90625 
L 39.796875 72.90625 
L 67.578125 0 
L 57.328125 0 
L 50.6875 18.703125 
L 17.828125 18.703125 
L 11.1875 0 
L 0.78125 0 
z
" id="BitstreamVeraSans-Roman-41"/>
      <path d="M 8.015625 75.875 
L 15.828125 75.875 
Q 23.140625 64.359375 26.78125 53.3125 
Q 30.421875 42.28125 30.421875 31.390625 
Q 30.421875 20.453125 26.78125 9.375 
Q 23.140625 -1.703125 15.828125 -13.1875 
L 8.015625 -13.1875 
Q 14.5 -2 17.703125 9.0625 
Q 20.90625 20.125 20.90625 31.390625 
Q 20.90625 42.671875 17.703125 53.65625 
Q 14.5 64.65625 8.015625 75.875 
" id="BitstreamVeraSans-Roman-29"/>
      <path d="M 54.890625 54.6875 
L 35.109375 28.078125 
L 55.90625 0 
L 45.3125 0 
L 29.390625 21.484375 
L 13.484375 0 
L 2.875 0 
L 24.125 28.609375 
L 4.6875 54.6875 
L 15.28125 54.6875 
L 29.78125 35.203125 
L 44.28125 54.6875 
z
" id="BitstreamVeraSans-Roman-78"/>
      <path d="M 30.609375 48.390625 
Q 23.390625 48.390625 19.1875 42.75 
Q 14.984375 37.109375 14.984375 27.296875 
Q 14.984375 17.484375 19.15625 11.84375 
Q 23.34375 6.203125 30.609375 6.203125 
Q 37.796875 6.203125 41.984375 11.859375 
Q 46.1875 17.53125 46.1875 27.296875 
Q 46.1875 37.015625 41.984375 42.703125 
Q 37.796875 48.390625 30.609375 48.390625 
M 30.609375 56 
Q 42.328125 56 49.015625 48.375 
Q 55.71875 40.765625 55.71875 27.296875 
Q 55.71875 13.875 49.015625 6.21875 
Q 42.328125 -1.421875 30.609375 -1.421875 
Q 18.84375 -1.421875 12.171875 6.21875 
Q 5.515625 13.875 5.515625 27.296875 
Q 5.515625 40.765625 12.171875 48.375 
Q 18.84375 56 30.609375 56 
" id="BitstreamVeraSans-Roman-6f"/>
      <path d="M 18.3125 70.21875 
L 18.3125 54.6875 
L 36.8125 54.6875 
L 36.8125 47.703125 
L 18.3125 47.703125 
L 18.3125 18.015625 
Q 18.3125 11.328125 20.140625 9.421875 
Q 21.96875 7.515625 27.59375 7.515625 
L 36.8125 7.515625 
L 36.8125 0 
L 27.59375 0 
Q 17.1875 0 13.234375 3.875 
Q 9.28125 7.765625 9.28125 18.015625 
L 9.28125 47.703125 
L 2.6875 47.703125 
L 2.6875 54.6875 
L 9.28125 54.6875 
L 9.28125 70.21875 
z
" id="BitstreamVeraSans-Roman-74"/>
      <path d="M 9.421875 54.6875 
L 18.40625 54.6875 
L 18.40625 0 
L 9.421875 0 
z
M 9.421875 75.984375 
L 18.40625 75.984375 
L 18.40625 64.59375 
L 9.421875 64.59375 
z
" id="BitstreamVeraSans-Roman-69"/>
      <path d="M 45.40625 46.390625 
L 45.40625 75.984375 
L 54.390625 75.984375 
L 54.390625 0 
L 45.40625 0 
L 45.40625 8.203125 
Q 42.578125 3.328125 38.25 0.953125 
Q 33.9375 -1.421875 27.875 -1.421875 
Q 17.96875 -1.421875 11.734375 6.484375 
Q 5.515625 14.40625 5.515625 27.296875 
Q 5.515625 40.1875 11.734375 48.09375 
Q 17.96875 56 27.875 56 
Q 33.9375 56 38.25 53.625 
Q 42.578125 51.265625 45.40625 46.390625 
M 14.796875 27.296875 
Q 14.796875 17.390625 18.875 11.75 
Q 22.953125 6.109375 30.078125 6.109375 
Q 37.203125 6.109375 41.296875 11.75 
Q 45.40625 17.390625 45.40625 27.296875 
Q 45.40625 37.203125 41.296875 42.84375 
Q 37.203125 48.484375 30.078125 48.484375 
Q 22.953125 48.484375 18.875 42.84375 
Q 14.796875 37.203125 14.796875 27.296875 
" id="BitstreamVeraSans-Roman-64"/>
     </defs>
     <g style="fill:#555555;" transform="translate(28.6596875 171.0740625)rotate(-90.0)scale(0.06 -0.06)">
      <use xlink:href="#BitstreamVeraSans-Roman-41"/>
      <use x="68.392578125" xlink:href="#BitstreamVeraSans-Roman-74"/>
      <use x="107.6015625" xlink:href="#BitstreamVeraSans-Roman-6d"/>
      <use x="205.013671875" xlink:href="#BitstreamVeraSans-Roman-6f"/>
      <use x="266.1953125" xlink:href="#BitstreamVeraSans-Roman-73"/>
      <use x="318.294921875" xlink:href="#BitstreamVeraSans-Roman-70"/>
      <use x="381.771484375" xlink:href="#BitstreamVeraSans-Roman-68"/>
      <use x="445.150390625" xlink:href="#BitstreamVeraSans-Roman-65"/>
      <use x="506.673828125" xlink:href="#BitstreamVeraSans-Roman-72"/>
      <use x="547.787109375" xlink:href="#BitstreamVeraSans-Roman-69"/>
      <use x="575.5703125" xlink:href="#BitstreamVeraSans-Roman-63"/>
      <use x="630.55078125" xlink:href="#BitstreamVeraSans-Roman-20"/>
      <use x="662.337890625" xlink:href="#BitstreamVeraSans-Roman-63"/>
      <use x="717.318359375" xlink:href="#BitstreamVeraSans-Roman-61"/>
      <use x="778.59765625" xlink:href="#BitstreamVeraSans-Roman-72"/>
      <use x="819.7109375" xlink:href="#BitstreamVeraSans-Roman-62"/>
      <use x="883.1875" xlink:href="#BitstreamVeraSans-Roman-6f"/>
      <use x="944.369140625" xlink:href="#BitstreamVeraSans-Roman-6e"/>
      <use x="1007.748046875" xlink:href="#BitstreamVeraSans-Roman-20"/>
      <use x="1039.53515625" xlink:href="#BitstreamVeraSans-Roman-64"/>
      <use x="1103.01171875" xlink:href="#BitstreamVeraSans-Roman-69"/>
      <use x="1130.794921875" xlink:href="#BitstreamVeraSans-Roman-6f"/>
      <use x="1191.9296875" xlink:href="#BitstreamVeraSans-Roman-78"/>
      <use x="1251.109375" xlink:href="#BitstreamVeraSans-Roman-69"/>
      <use x="1278.892578125" xlink:href="#BitstreamVeraSans-Roman-64"/>
      <use x="1342.369140625" xlink:href="#BitstreamVeraSans-Roman-65"/>
      <use x="1403.892578125" xlink:href="#BitstreamVeraSans-Roman-20"/>
      <use x="1435.6796875" xlink:href="#BitstreamVeraSans-Roman-63"/>
      <use x="1490.66015625" xlink:href="#BitstreamVeraSans-Roman-6f"/>
      <use x="1551.841796875" xlink:href="#BitstreamVeraSans-Roman-6e"/>
      <use x="1615.220703125" xlink:href="#BitstreamVeraSans-Roman-63"/>
      <use x="1670.201171875" xlink:href="#BitstreamVeraSans-Roman-65"/>
      <use x="1731.724609375" xlink:href="#BitstreamVeraSans-Roman-6e"/>
      <use x="1795.103515625" xlink:href="#BitstreamVeraSans-Roman-74"/>
      <use x="1834.3125" xlink:href="#BitstreamVeraSans-Roman-72"/>
      <use x="1875.42578125" xlink:href="#BitstreamVeraSans-Roman-61"/>
      <use x="1936.705078125" xlink:href="#BitstreamVeraSans-Roman-74"/>
      <use x="1975.9140625" xlink:href="#BitstreamVeraSans-Roman-69"/>
      <use x="2003.697265625" xlink:href="#BitstreamVeraSans-Roman-6f"/>
      <use x="2064.87890625" xlink:href="#BitstreamVeraSans-Roman-6e"/>
      <use x="2128.2578125" xlink:href="#BitstreamVeraSans-Roman-20"/>
      <use x="2160.044921875" xlink:href="#BitstreamVeraSans-Roman-28"/>
      <use x="2199.05859375" xlink:href="#BitstreamVeraSans-Roman-70"/>
      <use x="2262.53515625" xlink:href="#BitstreamVeraSans-Roman-70"/>
      <use x="2326.01171875" xlink:href="#BitstreamVeraSans-Roman-6d"/>
      <use x="2423.423828125" xlink:href="#BitstreamVeraSans-Roman-29"/>
     </g>
    </g>
   </g>
   <g id="line2d_52">
    <path clip-path="url(#p2b09415633)" d="M 106.586033 156.2976 
L 162.57234 158.0256 
L 184.465494 162.3456 
L 215.299743 155.7792 
L 281.786965 150.6816 
L 287.329888 146.6208 
L 323.317107 136.3392 
L 332.926697 143.2512 
L 332.982405 143.1648 
L 333.260943 142.6464 
L 333.344505 142.56 
L 333.539482 142.3008 
L 334.180122 142.3872 
L 334.347245 142.56 
L 334.514368 142.6464 
L 334.653638 142.7328 
L 335.656378 142.6464 
L 335.795647 142.56 
L 336.241309 142.4736 
L 336.408432 142.3008 
L 336.575556 142.2144 
L 336.826241 141.7824 
L 336.881948 141.696 
L 337.271903 140.832 
L 337.327611 140.7456 
L 337.578296 140.3136 
L 337.689711 140.2272 
L 337.856834 140.0544 
L 338.274643 139.968 
L 338.413912 139.8816 
L 338.581035 139.7952 
L 338.776013 139.536 
L 338.887428 139.4496 
L 339.082405 139.1904 
L 339.695191 139.2768 
L 339.890168 139.536 
L 339.97373 139.6224 
L 340.196561 139.968 
L 340.307976 140.0544 
L 340.502953 140.3136 
L 340.781492 140.4 
L 340.920762 140.4864 
L 341.394278 140.5728 
L 341.561401 140.7456 
L 341.70067 140.832 
L 341.923501 141.1776 
L 342.034917 141.264 
L 342.313456 141.7824 
L 342.369164 141.8688 
L 342.675556 142.4736 
L 342.759118 142.56 
L 342.981949 142.9056 
L 343.093365 142.992 
L 343.260488 143.1648 
L 343.511173 143.2512 
L 343.650442 143.3376 
L 344.235374 143.2512 
L 344.374643 143.1648 
L 346.07373 143.2512 
L 346.213 143.3376 
L 346.742223 143.424 
L 346.909347 143.5968 
L 347.07647 143.6832 
L 347.243593 143.856 
L 347.93994 143.7696 
L 348.218479 143.2512 
L 348.274187 143.1648 
L 348.552726 142.6464 
L 348.691995 142.56 
L 348.831265 142.4736 
L 349.026242 142.56 
L 349.221219 142.8192 
L 349.304781 142.9056 
L 349.471904 143.0784 
L 349.806151 142.992 
L 350.028982 142.6464 
L 350.112543 142.56 
L 350.391082 142.0416 
L 350.474644 141.9552 
L 350.697475 141.6096 
L 350.808891 141.5232 
L 351.003868 141.264 
L 351.198845 141.1776 
L 351.365968 141.0048 
L 351.533092 140.9184 
L 351.700215 140.7456 
L 352.006608 140.6592 
L 352.145877 140.5728 
L 352.396562 140.6592 
L 352.591539 140.9184 
L 352.702955 141.0048 
L 352.925786 141.3504 
L 353.009347 141.4368 
L 353.204325 141.696 
L 355.488343 141.6096 
L 355.627613 141.5232 
L 355.794736 141.4368 
L 355.961859 141.264 
L 356.268252 141.1776 
L 356.407521 141.0912 
L 357.410261 141.1776 
L 357.549531 141.264 
L 358.747248 141.1776 
L 358.886517 141.0912 
L 359.248618 141.1776 
L 359.415741 141.3504 
L 359.582864 141.4368 
L 359.749987 141.6096 
L 359.944965 141.696 
L 360.084234 141.7824 
L 360.446335 141.696 
L 360.641312 141.4368 
L 360.69702 141.3504 
L 361.309805 139.7952 
L 361.588344 139.8816 
L 361.755467 140.1408 
L 362.646791 137.7216 
L 362.786061 137.808 
L 363.008892 138.1536 
L 363.120307 138.24 
L 363.259577 138.3264 
L 363.482408 138.24 
L 363.677385 137.9808 
L 363.788801 137.8944 
L 364.011632 137.5488 
L 364.150901 137.4624 
L 364.318024 137.2896 
L 364.485148 137.2032 
L 364.624417 137.1168 
L 366.490627 137.2032 
L 366.79702 137.808 
L 366.852728 137.8944 
L 367.214828 138.672 
L 367.29839 138.7584 
L 367.465513 138.9312 
L 367.716198 138.8448 
L 367.911176 138.5856 
L 368.050445 138.672 
L 368.384692 139.3632 
L 368.440399 139.4496 
L 368.66323 139.7952 
L 369.025331 139.7088 
L 369.888801 137.376 
L 370.223048 138.7584 
L 370.66871 140.9184 
L 370.752272 141.0048 
L 370.891541 141.0912 
L 371.114372 141.0048 
L 371.365057 140.5728 
L 371.448619 140.4864 
L 371.643596 140.2272 
L 372.005697 140.3136 
L 372.479213 141.4368 
L 372.53492 141.3504 
L 372.646336 140.6592 
L 372.980582 137.808 
L 373.064144 137.8944 
L 373.259121 138.8448 
L 373.621222 140.4 
L 373.844053 140.7456 
L 373.983322 140.6592 
L 375.013916 137.808 
L 375.236747 137.7216 
L 375.376017 137.6352 
L 375.933094 137.7216 
L 376.462318 139.0176 
L 376.601587 138.9312 
L 376.852272 138.4992 
L 376.963688 138.5856 
L 377.075103 139.1904 
L 377.855012 147.6576 
L 377.91072 147.5712 
L 378.077843 146.7072 
L 378.802044 142.8192 
L 379.024875 142.9056 
L 379.331268 143.5104 
L 379.386976 143.5968 
L 379.609807 143.9424 
L 379.832638 143.856 
L 380.083323 143.424 
L 380.612547 143.3376 
L 381.141771 142.0416 
L 381.225332 142.128 
L 381.503871 143.1648 
L 381.78241 143.2512 
L 381.949533 143.424 
L 382.060949 143.3376 
L 382.673734 141.1776 
L 383.230812 137.0304 
L 383.425789 136.7712 
L 383.704328 137.808 
L 383.760036 137.6352 
L 383.982867 136.944 
L 384.122136 137.0304 
L 384.205698 136.4256 
L 384.428529 134.5248 
L 384.512091 134.6112 
L 384.707068 135.1296 
L 384.818483 135.1296 
L 385.01346 133.2288 
L 385.180584 132.1056 
L 385.236292 132.1056 
L 385.486977 129.8592 
L 386.071908 123.8976 
L 386.239031 122.1696 
L 386.628986 117.7632 
L 387.046794 113.616 
L 387.130356 113.7888 
L 387.15821 113.7024 
L 387.241771 113.184 
L 387.381041 110.9376 
L 387.798849 101.52 
L 388.272365 81.8208 
L 388.745881 55.02816 
L 389.02442 37.22976 
L 389.02442 37.22976 
" style="fill:none;stroke:#000000;stroke-linecap:square;"/>
   </g>
   <g id="patch_3">
    <path d="M 54.36 174.96 
L 391.392 174.96 
" style="fill:none;stroke:#ffffff;stroke-linecap:square;stroke-linejoin:miter;"/>
   </g>
   <g id="patch_4">
    <path d="M 391.392 174.96 
L 391.392 19.44 
" style="fill:none;stroke:#ffffff;stroke-linecap:square;stroke-linejoin:miter;"/>
   </g>
   <g id="patch_5">
    <path d="M 54.36 19.44 
L 391.392 19.44 
" style="fill:none;stroke:#ffffff;stroke-linecap:square;stroke-linejoin:miter;"/>
   </g>
   <g id="patch_6">
    <path d="M 54.36 174.96 
L 54.36 19.44 
" style="fill:none;stroke:#ffffff;stroke-linecap:square;stroke-linejoin:miter;"/>
   </g>
   <g id="text_20">
    <!-- Atmospheric carbon dioxide -->
    <g transform="translate(166.719125 14.44)scale(0.08 -0.08)">
     <use xlink:href="#BitstreamVeraSans-Roman-41"/>
     <use x="68.392578125" xlink:href="#BitstreamVeraSans-Roman-74"/>
     <use x="107.6015625" xlink:href="#BitstreamVeraSans-Roman-6d"/>
     <use x="205.013671875" xlink:href="#BitstreamVeraSans-Roman-6f"/>
     <use x="266.1953125" xlink:href="#BitstreamVeraSans-Roman-73"/>
     <use x="318.294921875" xlink:href="#BitstreamVeraSans-Roman-70"/>
     <use x="381.771484375" xlink:href="#BitstreamVeraSans-Roman-68"/>
     <use x="445.150390625" xlink:href="#BitstreamVeraSans-Roman-65"/>
     <use x="506.673828125" xlink:href="#BitstreamVeraSans-Roman-72"/>
     <use x="547.787109375" xlink:href="#BitstreamVeraSans-Roman-69"/>
     <use x="575.5703125" xlink:href="#BitstreamVeraSans-Roman-63"/>
     <use x="630.55078125" xlink:href="#BitstreamVeraSans-Roman-20"/>
     <use x="662.337890625" xlink:href="#BitstreamVeraSans-Roman-63"/>
     <use x="717.318359375" xlink:href="#BitstreamVeraSans-Roman-61"/>
     <use x="778.59765625" xlink:href="#BitstreamVeraSans-Roman-72"/>
     <use x="819.7109375" xlink:href="#BitstreamVeraSans-Roman-62"/>
     <use x="883.1875" xlink:href="#BitstreamVeraSans-Roman-6f"/>
     <use x="944.369140625" xlink:href="#BitstreamVeraSans-Roman-6e"/>
     <use x="1007.748046875" xlink:href="#BitstreamVeraSans-Roman-20"/>
     <use x="1039.53515625" xlink:href="#BitstreamVeraSans-Roman-64"/>
     <use x="1103.01171875" xlink:href="#BitstreamVeraSans-Roman-69"/>
     <use x="1130.794921875" xlink:href="#BitstreamVeraSans-Roman-6f"/>
     <use x="1191.9296875" xlink:href="#BitstreamVeraSans-Roman-78"/>
     <use x="1251.109375" xlink:href="#BitstreamVeraSans-Roman-69"/>
     <use x="1278.892578125" xlink:href="#BitstreamVeraSans-Roman-64"/>
     <use x="1342.369140625" xlink:href="#BitstreamVeraSans-Roman-65"/>
    </g>
   </g>
  </g>
 </g>
 <defs>
  <clipPath id="p2b09415633">
   <rect height="155.52" width="337.032" x="54.36" y="19.44"/>
  </clipPath>
 </defs>
</svg>
